<?xml version="1.0" encoding="UTF-8"?><svg id="Lager_1" xmlns="http://www.w3.org/2000/svg" viewBox="0 0 500 500"><circle cx="250" cy="250" r="250" style="fill:#fff; stroke-width:0px;"/><rect x="72.331" y="181.782" width="57.519" height="204.49" style="fill:#2d3250; stroke-width:0px;"/><path d="M130.317,386.739h-58.452v-205.424h58.452v205.424ZM72.798,385.805h56.585v-203.557h-56.585v203.557Z" style="fill:#2d3250; stroke-width:0px;"/><polygon points="99.283 214.863 72.331 178.981 222.889 65.894 259.14 94.792 99.283 214.863" style="fill:#2d3250; stroke-width:0px;"/><path d="M99.19,215.517l-27.512-36.629,151.221-113.584,37.005,29.499-160.713,120.714ZM72.985,179.074l26.391,35.135,159.003-119.428-35.497-28.296-149.896,112.589Z" style="fill:#2d3250; stroke-width:0px;"/><rect x="297.18" y="30.4" width="6.2" height="194.976" transform="translate(17.685 291.178) rotate(-53.089)" style="fill:#2d3250; stroke-width:0px;"/><path d="M376.46,189.569l-.373-.28-156.272-117.377,4.284-5.704,156.645,117.657-4.284,5.704ZM221.123,71.726l155.151,116.536,3.162-4.211-155.151-116.536-3.162,4.211Z" style="fill:#2d3250; stroke-width:0px;"/><rect x="157.704" y="308.164" width="5.497" height="150.719" transform="translate(543.977 223.071) rotate(90)" style="fill:#2d3250; stroke-width:0px;"/><path d="M236.279,386.739H84.626v-6.43h151.653v6.43ZM85.56,385.805h149.785v-4.563H85.56v4.563Z" style="fill:#2d3250; stroke-width:0px;"/><rect x="373.894" y="185.344" width="6.2" height="85.168" style="fill:#2d3250; stroke-width:0px;"/><path d="M380.56,270.979h-7.133v-86.102h7.133v86.102ZM374.361,270.045h5.266v-84.235h-5.266v84.235Z" style="fill:#2d3250; stroke-width:0px;"/><path d="M257.609,281.513h6.006v27.544h-6.12l-15.494-18.439v18.439h-5.929v-27.544h6.121l15.416,18.363v-18.363Z" style="fill:#2d3250; stroke-width:0px;"/><path d="M289.71,281.513c3.099,0,5.662,2.525,5.662,5.662v16.22c0,3.137-2.563,5.662-5.662,5.662h-16.22c-3.138,0-5.663-2.525-5.663-5.662v-16.22c0-3.137,2.525-5.662,5.663-5.662h16.22ZM273.757,303.089h15.608v-15.608h-15.608v15.608Z" style="fill:#2d3250; stroke-width:0px;"/><path d="M327.089,294.329c0,3.099-2.563,5.662-5.7,5.662h-.268c1.951,2.296,4.055,4.744,5.968,7.039v2.028h-6.121l-7.613-9.067-7.88.038c.077,0,.115.077.115.23,0,0-.077,0-.115-.038v8.837h-5.93v-27.506h21.845c3.137,0,5.7,2.563,5.7,5.662v7.115ZM305.474,294.023h15.608v-6.542h-15.608v6.542Z" style="fill:#2d3250; stroke-width:0px;"/><path d="M353.07,281.513c3.137,0,5.7,2.525,5.7,5.662v16.22c0,3.137-2.563,5.662-5.7,5.662h-21.845v-27.544h21.845ZM337.155,303.089h15.608v-15.608h-15.608v15.608Z" style="fill:#2d3250; stroke-width:0px;"/><path d="M388.575,287.481h-19.434v4.82h15.647v5.968h-15.647v4.821h19.434v5.968h-25.44v-27.544h25.44v5.968Z" style="fill:#2d3250; stroke-width:0px;"/><path d="M413.904,281.513h6.006v27.544h-6.121l-15.493-18.439v18.439h-5.93v-27.544h6.121l15.417,18.363v-18.363Z" style="fill:#2d3250; stroke-width:0px;"/><path d="M451.551,289.738h-6.006v-2.257h-15.608v4.82h15.953c3.099,0,5.662,2.525,5.662,5.662v5.432c0,3.137-2.563,5.662-5.662,5.662h-16.22c-3.137,0-5.662-2.525-5.662-5.662v-2.563h5.929v2.257h15.608v-4.821h-15.876c-3.137,0-5.662-2.524-5.662-5.662v-5.432c0-3.137,2.525-5.662,5.662-5.662h16.22c3.099,0,5.662,2.525,5.662,5.662v2.563Z" style="fill:#2d3250; stroke-width:0px;"/><rect x="90.819" y="343.583" width="99.959" height="33.926" style="fill:#2d3250; stroke-width:0px;"/><path d="M191.245,377.976h-100.893v-34.86h100.893v34.86ZM91.286,377.042h99.025v-32.992h-99.025v32.992Z" style="fill:#2d3250; stroke-width:0px;"/><rect x="72.331" y="304.873" width="87.398" height="33.926" style="fill:#2d3250; stroke-width:0px;"/><path d="M160.196,339.266h-88.332v-34.86h88.332v34.86ZM72.798,338.332h86.465v-32.993h-86.465v32.993Z" style="fill:#2d3250; stroke-width:0px;"/><rect x="90.819" y="266.162" width="99.959" height="33.926" style="fill:#2d3250; stroke-width:0px;"/><path d="M191.245,300.555h-100.893v-34.86h100.893v34.86ZM91.286,299.621h99.025v-32.992h-99.025v32.992Z" style="fill:#2d3250; stroke-width:0px;"/><rect x="72.331" y="227.452" width="87.398" height="33.926" style="fill:#2d3250; stroke-width:0px;"/><path d="M160.196,261.845h-88.332v-34.86h88.332v34.86ZM72.798,260.911h86.465v-32.993h-86.465v32.993Z" style="fill:#2d3250; stroke-width:0px;"/><path d="M271.549,336.607c0,.823-.098,1.598-.341,2.227.974,1.211,1.703,2.905,1.703,4.551v7.214c0,3.97-3.26,7.165-7.25,7.165h-27.783v-34.859h26.47c3.941,0,7.201,3.196,7.201,7.165v6.536ZM245.421,336.267h18.489v-5.809h-18.489v5.809ZM245.421,350.211h19.852v-6.39h-19.852v6.39Z" style="fill:#2d3250; stroke-width:0px;"/><path d="M314.368,322.905l-16.251,21.884v12.975h-7.59v-13.023l-6.374-8.521c-3.066-4.067-7.104-9.585-9.829-13.314h9.002l10.996,13.75c3.552-4.454,7.444-9.296,10.948-13.75h9.099Z" style="fill:#2d3250; stroke-width:0px;"/><path d="M350.472,333.363h-7.64v-2.905h-19.851v19.753h19.851v-5.229h-7.59v-7.552h15.23v13.168c0,3.97-3.26,7.165-7.25,7.165h-20.582c-3.989,0-7.201-3.195-7.201-7.165v-20.528c0-3.969,3.212-7.165,7.201-7.165h20.582c3.99,0,7.25,3.196,7.25,7.165v3.293Z" style="fill:#2d3250; stroke-width:0px;"/><path d="M390.857,333.363h-7.64v-2.905h-19.851v19.753h19.851v-5.229h-7.59v-7.552h15.23v13.168c0,3.97-3.26,7.165-7.25,7.165h-20.582c-3.989,0-7.201-3.195-7.201-7.165v-20.528c0-3.969,3.212-7.165,7.201-7.165h20.582c3.99,0,7.25,3.196,7.25,7.165v3.293Z" style="fill:#2d3250; stroke-width:0px;"/><path d="M451.677,350.986v7.65l-6.812-3.874c-1.314,1.792-3.503,3.002-5.839,3.002h-20.242c-3.893,0-7.055-3.195-7.055-7.02v-8.956c0-1.258.633-3.099,2.093-4.067-.341-.822-.341-1.646-.341-2.566v-5.18c0-3.873,3.212-7.02,7.055-7.02h17.176c3.454,0,6.471,2.468,7.055,5.761v4.26h-7.444v-2.566h-16.397v5.229l17.711,8.86v-4.599h7.444v7.795l5.595,3.293ZM419.175,342.319v8.037h16.057c-1.703-.872-3.407-1.647-5.061-2.518-3.454-1.743-7.444-3.777-10.996-5.519Z" style="fill:#2d3250; stroke-width:0px;"/><path d="M252.991,370.807v3.261h-10.618v2.633h8.549v3.261h-8.549v5.894h-3.281v-15.049h13.9Z" style="fill:#2d3250; stroke-width:0px;"/><path d="M266.139,370.807c1.713,0,3.114,1.38,3.114,3.094v11.955h-3.282v-4.849h-8.528v4.849h-3.24v-11.955c0-1.714,1.38-3.094,3.094-3.094h8.841ZM265.971,377.746v-3.678h-8.528v3.678h8.528Z" style="fill:#2d3250; stroke-width:0px;"/><path d="M286.583,375.301h-3.282v-1.233h-8.528v2.633h8.716c1.693,0,3.094,1.38,3.094,3.094v2.968c0,1.713-1.401,3.093-3.094,3.093h-8.862c-1.713,0-3.093-1.38-3.093-3.093v-1.401h3.24v1.233h8.528v-2.633h-8.675c-1.713,0-3.093-1.38-3.093-3.093v-2.968c0-1.714,1.38-3.094,3.093-3.094h8.862c1.693,0,3.094,1.38,3.094,3.094v1.4Z" style="fill:#2d3250; stroke-width:0px;"/><path d="M300.797,370.807c1.713,0,3.114,1.38,3.114,3.094v11.955h-3.282v-4.849h-8.528v4.849h-3.24v-11.955c0-1.714,1.38-3.094,3.094-3.094h8.841ZM300.629,377.746v-3.678h-8.528v3.678h8.528Z" style="fill:#2d3250; stroke-width:0px;"/><path d="M318.273,370.807c1.713,0,3.114,1.38,3.114,3.094v8.862c0,1.713-1.401,3.093-3.114,3.093h-11.935v-15.049h11.935ZM309.578,382.596h8.528v-8.528h-8.528v8.528Z" style="fill:#2d3250; stroke-width:0px;"/><path d="M338.027,370.807v3.261h-5.894v11.789h-3.261v-11.789h-5.894v-3.261h15.049Z" style="fill:#2d3250; stroke-width:0px;"/><path d="M353.537,374.068h-10.619v2.633h8.549v3.261h-8.549v2.633h10.619v3.261h-13.9v-15.049h13.9v3.261Z" style="fill:#2d3250; stroke-width:0px;"/><path d="M370.155,370.807v1.129l-5.372,6.396c1.756,2.111,3.616,4.306,5.372,6.396v1.129h-3.386l-4.933-5.894h-2.947v5.894h-3.26v-15.049h3.26v5.894h2.947c.627-.731,1.255-1.484,1.881-2.236l3.052-3.658h3.386Z" style="fill:#2d3250; stroke-width:0px;"/><path d="M384.036,370.807h3.281v15.049h-3.344l-8.465-10.074v10.074h-3.24v-15.049h3.344l8.424,10.033v-10.033Z" style="fill:#2d3250; stroke-width:0px;"/><path d="M389.681,370.807h3.26v15.049h-3.26v-15.049Z" style="fill:#2d3250; stroke-width:0px;"/><path d="M409.014,370.807v1.129l-5.372,6.396c1.756,2.111,3.616,4.306,5.372,6.396v1.129h-3.386l-4.933-5.894h-2.947v5.894h-3.26v-15.049h3.26v5.894h2.947c.627-.731,1.255-1.484,1.881-2.236l3.052-3.658h3.386Z" style="fill:#2d3250; stroke-width:0px;"/><path d="M429.835,370.807c1.713,0,3.114,1.38,3.114,3.094v11.955h-3.282v-4.849h-8.528v4.849h-3.24v-11.955c0-1.714,1.38-3.094,3.094-3.094h8.841ZM429.667,377.746v-3.678h-8.528v3.678h8.528Z" style="fill:#2d3250; stroke-width:0px;"/><path d="M449.859,376.722c0,.356-.042.69-.146.962.418.522.731,1.254.731,1.964v3.115c0,1.713-1.401,3.093-3.114,3.093h-11.935v-15.049h11.371c1.693,0,3.093,1.38,3.093,3.094v2.821ZM438.635,376.576h7.943v-2.509h-7.943v2.509ZM438.635,382.596h8.528v-2.759h-8.528v2.759Z" style="fill:#2d3250; stroke-width:0px;"/></svg>
